<?xml version="1.0" encoding="UTF-8" standalone="no"?>
<svg
   xmlns:dc="http://purl.org/dc/elements/1.1/"
   xmlns:cc="http://creativecommons.org/ns#"
   xmlns:rdf="http://www.w3.org/1999/02/22-rdf-syntax-ns#"
   xmlns:svg="http://www.w3.org/2000/svg"
   xmlns="http://www.w3.org/2000/svg"
   xmlns:sodipodi="http://sodipodi.sourceforge.net/DTD/sodipodi-0.dtd"
   xmlns:inkscape="http://www.inkscape.org/namespaces/inkscape"
   height="512.00037"
   width="258.97327"
   inkscape:version="1.0 (4035a4fb49, 2020-05-01)"
   sodipodi:docname="arrow.svg"
   xml:space="preserve"
   viewBox="0 0 258.97327 512.00037"
   y="0px"
   x="0px"
   id="Capa_1"
   version="1.1"><metadata
   id="metadata2861"><rdf:RDF><cc:Work
       rdf:about=""><dc:format>image/svg+xml</dc:format><dc:type
         rdf:resource="http://purl.org/dc/dcmitype/StillImage" /><dc:title></dc:title></cc:Work></rdf:RDF></metadata><defs
   id="defs2859" /><sodipodi:namedview
   fit-margin-bottom="0"
   fit-margin-right="0"
   fit-margin-left="0"
   fit-margin-top="0"
   inkscape:current-layer="Capa_1"
   inkscape:window-maximized="1"
   inkscape:window-y="-8"
   inkscape:window-x="-8"
   inkscape:cy="386.2376"
   inkscape:cx="102.00453"
   inkscape:zoom="1.328125"
   showgrid="false"
   id="namedview2857"
   inkscape:window-height="847"
   inkscape:window-width="1440"
   inkscape:pageshadow="2"
   inkscape:pageopacity="0"
   guidetolerance="10"
   gridtolerance="10"
   objecttolerance="10"
   borderopacity="1"
   bordercolor="#666666"
   pagecolor="#ffffff" />
<g
   transform="translate(-126.51311,3.8508858e-4)"
   style="fill:#ffffff"
   id="g2824">
	<g
   style="fill:#ffffff"
   id="g2822">
		<path
   style="fill:#ffffff"
   id="path2820"
   d="M 367.954,213.588 160.67,5.872 c -7.804,-7.819 -20.467,-7.831 -28.284,-0.029 -7.819,7.802 -7.832,20.465 -0.03,28.284 l 207.299,207.731 c 7.798,7.798 7.798,20.486 -0.015,28.299 L 132.356,477.873 c -7.802,7.819 -7.789,20.482 0.03,28.284 3.903,3.896 9.016,5.843 14.127,5.843 5.125,0 10.25,-1.958 14.157,-5.873 L 367.939,298.426 c 23.394,-23.394 23.394,-61.459 0.015,-84.838 z" />
	</g>
</g>
<g
   transform="translate(-126.51311,3.8508858e-4)"
   id="g2826">
</g>
<g
   transform="translate(-126.51311,3.8508858e-4)"
   id="g2828">
</g>
<g
   transform="translate(-126.51311,3.8508858e-4)"
   id="g2830">
</g>
<g
   transform="translate(-126.51311,3.8508858e-4)"
   id="g2832">
</g>
<g
   transform="translate(-126.51311,3.8508858e-4)"
   id="g2834">
</g>
<g
   transform="translate(-126.51311,3.8508858e-4)"
   id="g2836">
</g>
<g
   transform="translate(-126.51311,3.8508858e-4)"
   id="g2838">
</g>
<g
   transform="translate(-126.51311,3.8508858e-4)"
   id="g2840">
</g>
<g
   transform="translate(-126.51311,3.8508858e-4)"
   id="g2842">
</g>
<g
   transform="translate(-126.51311,3.8508858e-4)"
   id="g2844">
</g>
<g
   transform="translate(-126.51311,3.8508858e-4)"
   id="g2846">
</g>
<g
   transform="translate(-126.51311,3.8508858e-4)"
   id="g2848">
</g>
<g
   transform="translate(-126.51311,3.8508858e-4)"
   id="g2850">
</g>
<g
   transform="translate(-126.51311,3.8508858e-4)"
   id="g2852">
</g>
<g
   transform="translate(-126.51311,3.8508858e-4)"
   id="g2854">
</g>
</svg>
