<?xml version="1.0" encoding="UTF-8" standalone="no"?>
<svg
   xmlns:dc="http://purl.org/dc/elements/1.1/"
   xmlns:cc="http://creativecommons.org/ns#"
   xmlns:rdf="http://www.w3.org/1999/02/22-rdf-syntax-ns#"
   xmlns:svg="http://www.w3.org/2000/svg"
   xmlns="http://www.w3.org/2000/svg"
   xmlns:sodipodi="http://sodipodi.sourceforge.net/DTD/sodipodi-0.dtd"
   xmlns:inkscape="http://www.inkscape.org/namespaces/inkscape"
   inkscape:version="1.0 (4035a4fb49, 2020-05-01)"
   sodipodi:docname="phone-call.svg"
   xml:space="preserve"
   style="enable-background:new 0 0 448 448;"
   viewBox="0 0 448 448"
   y="0px"
   x="0px"
   id="Capa_1"
   version="1.1"><metadata
   id="metadata922"><rdf:RDF><cc:Work
       rdf:about=""><dc:format>image/svg+xml</dc:format><dc:type
         rdf:resource="http://purl.org/dc/dcmitype/StillImage" /></cc:Work></rdf:RDF></metadata><defs
   id="defs920" /><sodipodi:namedview
   inkscape:current-layer="Capa_1"
   inkscape:window-maximized="1"
   inkscape:window-y="-8"
   inkscape:window-x="-8"
   inkscape:cy="497.24993"
   inkscape:cx="199.95294"
   inkscape:zoom="1.5178571"
   showgrid="false"
   id="namedview918"
   inkscape:window-height="847"
   inkscape:window-width="1440"
   inkscape:pageshadow="2"
   inkscape:pageopacity="0"
   guidetolerance="10"
   gridtolerance="10"
   objecttolerance="10"
   borderopacity="1"
   bordercolor="#666666"
   pagecolor="#ffffff" />
<g
   style="fill:#e8377f;fill-opacity:1"
   id="g885">
	<g
   style="fill:#e8377f;fill-opacity:1"
   id="g883">
		<path
   style="fill:#e8377f;fill-opacity:1"
   id="path881"
   d="M418.688,318.72c-34.624-3.168-68.384-11.968-100.288-26.176c-15.68-7.072-34.016-0.672-41.728,14.56l-21.76,43.2    c-65.984-36.576-120.704-91.328-157.216-157.248l43.168-21.728c15.232-7.648,21.664-25.984,14.624-41.728    C141.248,97.728,132.416,64,129.28,29.312C127.744,12.608,114.144,0,97.6,0H16C7.168,0,0,7.168,0,16    c0,65.152,14.208,127.968,42.208,186.784c42.528,88.384,114.624,160.48,203.072,203.04C304.064,433.824,366.88,448,432,448    c8.832,0,16-7.168,16-16v-81.6C448,333.856,435.392,320.224,418.688,318.72z" />
	</g>
</g>
<g
   id="g887">
</g>
<g
   id="g889">
</g>
<g
   id="g891">
</g>
<g
   id="g893">
</g>
<g
   id="g895">
</g>
<g
   id="g897">
</g>
<g
   id="g899">
</g>
<g
   id="g901">
</g>
<g
   id="g903">
</g>
<g
   id="g905">
</g>
<g
   id="g907">
</g>
<g
   id="g909">
</g>
<g
   id="g911">
</g>
<g
   id="g913">
</g>
<g
   id="g915">
</g>
</svg>
