<?xml version="1.0" encoding="UTF-8" standalone="no"?>
<svg
   xmlns:dc="http://purl.org/dc/elements/1.1/"
   xmlns:cc="http://creativecommons.org/ns#"
   xmlns:rdf="http://www.w3.org/1999/02/22-rdf-syntax-ns#"
   xmlns:svg="http://www.w3.org/2000/svg"
   xmlns="http://www.w3.org/2000/svg"
   xmlns:sodipodi="http://sodipodi.sourceforge.net/DTD/sodipodi-0.dtd"
   xmlns:inkscape="http://www.inkscape.org/namespaces/inkscape"
   inkscape:version="1.0 (4035a4fb49, 2020-05-01)"
   sodipodi:docname="location2.svg"
   id="svg3021"
   enable-background="new 0 0 511 511"
   viewBox="0 0 11982.57 13546.66"
   style="clip-rule:evenodd;fill-rule:evenodd;image-rendering:optimizeQuality;shape-rendering:geometricPrecision;text-rendering:geometricPrecision"
   version="1.1"
   height="135.4666mm"
   width="119.8257mm"
   xml:space="preserve"><metadata
   id="metadata3025"><rdf:RDF><cc:Work
       rdf:about=""><dc:format>image/svg+xml</dc:format><dc:type
         rdf:resource="http://purl.org/dc/dcmitype/StillImage" /><dc:title></dc:title></cc:Work></rdf:RDF></metadata><sodipodi:namedview
   inkscape:current-layer="svg3021"
   inkscape:window-maximized="1"
   inkscape:window-y="-8"
   inkscape:window-x="-8"
   inkscape:cy="255.99987"
   inkscape:cx="166.18918"
   inkscape:zoom="0.60578002"
   fit-margin-bottom="0"
   fit-margin-right="0"
   fit-margin-left="0"
   fit-margin-top="0"
   showgrid="false"
   id="namedview3023"
   inkscape:window-height="847"
   inkscape:window-width="1440"
   inkscape:pageshadow="2"
   inkscape:pageopacity="0"
   guidetolerance="10"
   gridtolerance="10"
   objecttolerance="10"
   borderopacity="1"
   bordercolor="#666666"
   pagecolor="#ffffff" />
 <defs
   id="defs3013">
  <style
   id="style3011"
   type="text/css">
   <![CDATA[
    .fil0 {fill:#E83F82}
   ]]>
  </style>
 </defs>
 <g
   transform="translate(-4508.72,-8076.67)"
   style="fill:#03aae3;fill-opacity:1"
   id="Vrstva_x0020_1">
  <metadata
   id="CorelCorpID_0Corel-Layer" />
  <path
   style="fill:#03aae3;fill-opacity:1"
   id="path3016"
   d="M 14736.47,9831.45 C 13604.89,8699.87 12100.33,8076.67 10500,8076.67 c -1600.33,0 -3104.89,623.2 -4236.47,1754.78 -1131.61,1131.64 -1754.81,2636.17 -1754.81,4236.5 0,2823.3 1973.78,5260.75 4715.8,5854.73 l 1275.48,1700.65 1275.51,-1700.68 c 2741.99,-593.99 4715.78,-3031.4 4715.78,-5854.7 0,-1600.34 -623.2,-3104.86 -1754.81,-4236.5 z M 10500,9640.76 c 2426.55,0 4400.68,1974.15 4400.68,4400.68 0,2426.53 -1974.13,4400.68 -4400.68,4400.68 -2426.55,0 -4400.68,-1974.15 -4400.68,-4400.68 0,-2426.53 1974.13,-4400.68 4400.68,-4400.68 z"
   class="fil0" />
  <path
   style="fill:#03aae3;fill-opacity:1"
   id="path3018"
   d="m 14105.37,14041.44 c 0,-1991.19 -1614.18,-3605.37 -3605.37,-3605.37 -1991.19,0 -3605.37,1614.18 -3605.37,3605.37 0,1991.19 1614.18,3605.37 3605.37,3605.37 1991.19,0 3605.37,-1614.18 3605.37,-3605.37 z m -5872.49,1100.1 v -1886.87 l 1283.03,-192.14 v 2169.4 z m 1512.33,90.39 0.01,-2668.87 1537.15,-192.13 v 2770.62 z m 1766.45,-90.39 v -2079 l 1295.43,192.14 0.01,1977.25 z"
   class="fil0" />
 </g>
</svg>
