<?xml version="1.0" encoding="UTF-8" standalone="no"?>
<svg
   xmlns:dc="http://purl.org/dc/elements/1.1/"
   xmlns:cc="http://creativecommons.org/ns#"
   xmlns:rdf="http://www.w3.org/1999/02/22-rdf-syntax-ns#"
   xmlns:svg="http://www.w3.org/2000/svg"
   xmlns="http://www.w3.org/2000/svg"
   xmlns:sodipodi="http://sodipodi.sourceforge.net/DTD/sodipodi-0.dtd"
   xmlns:inkscape="http://www.inkscape.org/namespaces/inkscape"
   version="1.1"
   id="Capa_1"
   x="0px"
   y="0px"
   viewBox="0 0 512 512"
   style="enable-background:new 0 0 512 512;"
   xml:space="preserve"
   sodipodi:docname="icon-small-left.svg"
   inkscape:version="1.0 (4035a4fb49, 2020-05-01)"><metadata
   id="metadata5014"><rdf:RDF><cc:Work
       rdf:about=""><dc:format>image/svg+xml</dc:format><dc:type
         rdf:resource="http://purl.org/dc/dcmitype/StillImage" /><dc:title /></cc:Work></rdf:RDF></metadata><defs
   id="defs5012" /><sodipodi:namedview
   inkscape:document-rotation="0"
   pagecolor="#ffffff"
   bordercolor="#666666"
   borderopacity="1"
   objecttolerance="10"
   gridtolerance="10"
   guidetolerance="10"
   inkscape:pageopacity="0"
   inkscape:pageshadow="2"
   inkscape:window-width="1440"
   inkscape:window-height="847"
   id="namedview5010"
   showgrid="false"
   inkscape:zoom="1.328125"
   inkscape:cx="272.02194"
   inkscape:cy="267.82994"
   inkscape:window-x="-8"
   inkscape:window-y="-8"
   inkscape:window-maximized="1"
   inkscape:current-layer="Capa_1" />
<g
   id="g4977"
   style="fill:#e8377f;fill-opacity:1"
   transform="matrix(0,-1,-1,0,511.9995,511.9995)">
	<g
   id="g4975"
   style="fill:#e8377f;fill-opacity:1">
		<path
   d="M 441.156,322.876 392.49,275.49 c -3.319,-3.243 -8.619,-3.234 -11.93,0.017 l -81.894,80.299 V 8.533 C 298.666,3.823 294.843,0 290.133,0 h -68.267 c -4.71,0 -8.533,3.823 -8.533,8.533 v 347.273 l -81.894,-80.299 c -3.311,-3.243 -8.602,-3.251 -11.921,-0.017 l -48.666,47.386 c -1.655,1.604 -2.586,3.806 -2.586,6.11 0,2.304 0.939,4.506 2.586,6.11 l 179.2,174.481 c 1.655,1.613 3.806,2.423 5.948,2.423 2.15,0 4.292,-0.811 5.956,-2.423 l 179.2,-174.481 c 1.647,-1.604 2.577,-3.806 2.577,-6.11 0,-2.304 -0.93,-4.506 -2.577,-6.11 z"
   id="path4973"
   style="fill:#e8377f;fill-opacity:1" />
	</g>
</g>
<g
   id="g4979">
</g>
<g
   id="g4981">
</g>
<g
   id="g4983">
</g>
<g
   id="g4985">
</g>
<g
   id="g4987">
</g>
<g
   id="g4989">
</g>
<g
   id="g4991">
</g>
<g
   id="g4993">
</g>
<g
   id="g4995">
</g>
<g
   id="g4997">
</g>
<g
   id="g4999">
</g>
<g
   id="g5001">
</g>
<g
   id="g5003">
</g>
<g
   id="g5005">
</g>
<g
   id="g5007">
</g>
</svg>
