<?xml version="1.0" encoding="UTF-8" standalone="no"?>
<svg
   xmlns:dc="http://purl.org/dc/elements/1.1/"
   xmlns:cc="http://creativecommons.org/ns#"
   xmlns:rdf="http://www.w3.org/1999/02/22-rdf-syntax-ns#"
   xmlns:svg="http://www.w3.org/2000/svg"
   xmlns="http://www.w3.org/2000/svg"
   xmlns:sodipodi="http://sodipodi.sourceforge.net/DTD/sodipodi-0.dtd"
   xmlns:inkscape="http://www.inkscape.org/namespaces/inkscape"
   height="512pt"
   viewBox="0 0 512 512"
   width="512pt"
   version="1.1"
   id="svg2289"
   sodipodi:docname="increase.svg"
   inkscape:version="0.92.3 (2405546, 2018-03-11)">
  <metadata
     id="metadata2295">
    <rdf:RDF>
      <cc:Work
         rdf:about="">
        <dc:format>image/svg+xml</dc:format>
        <dc:type
           rdf:resource="http://purl.org/dc/dcmitype/StillImage" />
      </cc:Work>
    </rdf:RDF>
  </metadata>
  <defs
     id="defs2293" />
  <sodipodi:namedview
     pagecolor="#ffffff"
     bordercolor="#666666"
     borderopacity="1"
     objecttolerance="10"
     gridtolerance="10"
     guidetolerance="10"
     inkscape:pageopacity="0"
     inkscape:pageshadow="2"
     inkscape:window-width="1920"
     inkscape:window-height="1028"
     id="namedview2291"
     showgrid="false"
     inkscape:zoom="0.34570313"
     inkscape:cx="175.00565"
     inkscape:cy="341.33333"
     inkscape:window-x="-8"
     inkscape:window-y="-8"
     inkscape:window-maximized="1"
     inkscape:current-layer="svg2289" />
  <path
     d="m231.144531 308.144531-82.859375 82.855469h56.714844c11.046875 0 20 8.953125 20 20s-8.953125 20-20 20h-75c-27.570312 0-50-22.429688-50-50v-75c0-11.046875 8.953125-20 20-20s20 8.953125 20 20v56.714844l82.855469-82.855469c7.8125-7.8125 20.476562-7.8125 28.285156 0 7.8125 7.808594 7.8125 20.472656.003906 28.285156zm180.855469-84.144531c11.046875 0 20-8.953125 20-20v-75c0-27.570312-22.429688-50-50-50h-75c-11.046875 0-20 8.953125-20 20s8.953125 20 20 20h56.714844l-82.855469 82.855469c-7.8125 7.8125-7.8125 20.476562 0 28.285156 3.902344 3.90625 9.023437 5.859375 14.140625 5.859375s10.238281-1.953125 14.144531-5.855469l82.855469-82.859375v56.714844c0 11.046875 8.953125 20 20 20zm80 128c11.046875 0 20-8.953125 20-20v-252c0-44.113281-35.886719-80-80-80h-352c-44.113281 0-80 35.886719-80 80v352c0 44.113281 35.886719 80 80 80h352c44.113281 0 80-35.886719 80-80 0-11.046875-8.953125-20-20-20s-20 8.953125-20 20c0 22.054688-17.945312 40-40 40h-352c-22.054688 0-40-17.945312-40-40v-352c0-22.054688 17.945312-40 40-40h352c22.054688 0 40 17.945312 40 40v252c0 11.046875 8.953125 20 20 20zm0 0"
     id="path2287"
     style="fill:#ffffff" />
</svg>
