<?xml version="1.0" encoding="UTF-8" standalone="no"?>
<!-- Generator: Adobe Illustrator 24.1.2, SVG Export Plug-In . SVG Version: 6.00 Build 0)  -->

<svg
   xmlns:dc="http://purl.org/dc/elements/1.1/"
   xmlns:cc="http://creativecommons.org/ns#"
   xmlns:rdf="http://www.w3.org/1999/02/22-rdf-syntax-ns#"
   xmlns:svg="http://www.w3.org/2000/svg"
   xmlns="http://www.w3.org/2000/svg"
   xmlns:sodipodi="http://sodipodi.sourceforge.net/DTD/sodipodi-0.dtd"
   xmlns:inkscape="http://www.inkscape.org/namespaces/inkscape"
   version="1.1"
   id="Vrstva_1"
   x="0px"
   y="0px"
   viewBox="0 0 512 512"
   style="enable-background:new 0 0 512 512;"
   xml:space="preserve"
   sodipodi:docname="instagram.svg"
   inkscape:version="0.92.3 (2405546, 2018-03-11)"><metadata
   id="metadata7382"><rdf:RDF><cc:Work
       rdf:about=""><dc:format>image/svg+xml</dc:format><dc:type
         rdf:resource="http://purl.org/dc/dcmitype/StillImage" /></cc:Work></rdf:RDF></metadata><defs
   id="defs7380" /><sodipodi:namedview
   pagecolor="#ffffff"
   bordercolor="#666666"
   borderopacity="1"
   objecttolerance="10"
   gridtolerance="10"
   guidetolerance="10"
   inkscape:pageopacity="0"
   inkscape:pageshadow="2"
   inkscape:window-width="1920"
   inkscape:window-height="1028"
   id="namedview7378"
   showgrid="false"
   inkscape:zoom="0.4609375"
   inkscape:cx="131.25424"
   inkscape:cy="256"
   inkscape:window-x="-8"
   inkscape:window-y="-8"
   inkscape:window-maximized="1"
   inkscape:current-layer="Vrstva_1" />
<path
   d="M373.4,0H138.6C62.2,0,0,62.2,0,138.6v234.8C0,449.8,62.2,512,138.6,512h234.8c76.4,0,138.6-62.2,138.6-138.6V138.6  C512,62.2,449.8,0,373.4,0z M256,396c-77.2,0-140-62.8-140-140s62.8-140,140-140s140,62.8,140,140S333.2,396,256,396z M399.3,149  c-22.8,0-41.4-18.6-41.4-41.4s18.6-41.4,41.4-41.4s41.4,18.6,41.4,41.4S422.2,149,399.3,149z"
   id="path7371"
   style="fill:#888888;fill-opacity:1" />
<path
   d="M256,146c-60.6,0-110,49.3-110,110c0,60.6,49.3,110,110,110c60.6,0,110-49.3,110-110C366,195.4,316.6,146,256,146z"
   id="path7373"
   style="fill:#888888;fill-opacity:1" />
<path
   d="M399.3,96.3c-6.3,0-11.4,5.1-11.4,11.4s5.1,11.4,11.4,11.4s11.4-5.1,11.4-11.4S405.6,96.3,399.3,96.3z"
   id="path7375"
   style="fill:#888888;fill-opacity:1" />
</svg>