<?xml version="1.0" encoding="UTF-8" standalone="no"?>
<svg
   xmlns:dc="http://purl.org/dc/elements/1.1/"
   xmlns:cc="http://creativecommons.org/ns#"
   xmlns:rdf="http://www.w3.org/1999/02/22-rdf-syntax-ns#"
   xmlns:svg="http://www.w3.org/2000/svg"
   xmlns="http://www.w3.org/2000/svg"
   xmlns:sodipodi="http://sodipodi.sourceforge.net/DTD/sodipodi-0.dtd"
   xmlns:inkscape="http://www.inkscape.org/namespaces/inkscape"
   inkscape:version="1.0 (4035a4fb49, 2020-05-01)"
   sodipodi:docname="confirmation.svg"
   xml:space="preserve"
   style="enable-background:new 0 0 384 384;"
   viewBox="0 0 384 384"
   y="0px"
   x="0px"
   id="Capa_1"
   version="1.1"><metadata
   id="metadata5941"><rdf:RDF><cc:Work
       rdf:about=""><dc:format>image/svg+xml</dc:format><dc:type
         rdf:resource="http://purl.org/dc/dcmitype/StillImage" /></cc:Work></rdf:RDF></metadata><defs
   id="defs5939" /><sodipodi:namedview
   inkscape:current-layer="Capa_1"
   inkscape:window-maximized="1"
   inkscape:window-y="-8"
   inkscape:window-x="-8"
   inkscape:cy="192"
   inkscape:cx="162.85056"
   inkscape:zoom="1.2521683"
   showgrid="false"
   id="namedview5937"
   inkscape:window-height="847"
   inkscape:window-width="1440"
   inkscape:pageshadow="2"
   inkscape:pageopacity="0"
   guidetolerance="10"
   gridtolerance="10"
   objecttolerance="10"
   borderopacity="1"
   bordercolor="#666666"
   pagecolor="#ffffff" />
<g
   style="fill:#076c90;fill-opacity:1"
   id="g5898">
	<g
   style="fill:#076c90;fill-opacity:1"
   id="g5896">
		<path
   style="fill:#076c90;fill-opacity:1"
   id="path5894"
   d="M275.312,140.688c-6.24-6.248-16.384-6.248-22.624,0L184,209.368l-28.688-28.68c-6.24-6.248-16.384-6.248-22.624,0    c-6.248,6.248-6.248,16.376,0,22.624l40,40C175.808,246.44,179.904,248,184,248s8.192-1.56,11.312-4.688l80-80    C281.56,157.064,281.56,146.936,275.312,140.688z" />
	</g>
</g>
<g
   style="fill:#076c90;fill-opacity:1"
   id="g5904">
	<g
   style="fill:#076c90;fill-opacity:1"
   id="g5902">
		<path
   style="fill:#076c90;fill-opacity:1"
   id="path5900"
   d="M368,176c-8.832,0-16,7.168-16,16c0,88.224-71.776,160-160,160S32,280.224,32,192S103.776,32,192,32    c42.952,0,83.272,16.784,113.544,47.264c6.216,6.28,16.352,6.312,22.624,0.08c6.272-6.224,6.304-16.352,0.08-22.624    C291.928,20.144,243.536,0,192,0C86.128,0,0,86.128,0,192s86.128,192,192,192s192-86.128,192-192C384,183.168,376.832,176,368,176    z" />
	</g>
</g>
<g
   id="g5906">
</g>
<g
   id="g5908">
</g>
<g
   id="g5910">
</g>
<g
   id="g5912">
</g>
<g
   id="g5914">
</g>
<g
   id="g5916">
</g>
<g
   id="g5918">
</g>
<g
   id="g5920">
</g>
<g
   id="g5922">
</g>
<g
   id="g5924">
</g>
<g
   id="g5926">
</g>
<g
   id="g5928">
</g>
<g
   id="g5930">
</g>
<g
   id="g5932">
</g>
<g
   id="g5934">
</g>
</svg>
