<?xml version="1.0" encoding="UTF-8" standalone="no"?>
<!-- Generator: Adobe Illustrator 19.0.0, SVG Export Plug-In . SVG Version: 6.00 Build 0)  -->

<svg
   xmlns:dc="http://purl.org/dc/elements/1.1/"
   xmlns:cc="http://creativecommons.org/ns#"
   xmlns:rdf="http://www.w3.org/1999/02/22-rdf-syntax-ns#"
   xmlns:svg="http://www.w3.org/2000/svg"
   xmlns="http://www.w3.org/2000/svg"
   xmlns:sodipodi="http://sodipodi.sourceforge.net/DTD/sodipodi-0.dtd"
   xmlns:inkscape="http://www.inkscape.org/namespaces/inkscape"
   version="1.1"
   id="Capa_1"
   x="0px"
   y="0px"
   viewBox="0 0 512 512"
   style="enable-background:new 0 0 512 512;"
   xml:space="preserve"
   sodipodi:docname="parking.svg"
   inkscape:version="0.92.3 (2405546, 2018-03-11)"><metadata
   id="metadata3456"><rdf:RDF><cc:Work
       rdf:about=""><dc:format>image/svg+xml</dc:format><dc:type
         rdf:resource="http://purl.org/dc/dcmitype/StillImage" /></cc:Work></rdf:RDF></metadata><defs
   id="defs3454" /><sodipodi:namedview
   pagecolor="#ffffff"
   bordercolor="#666666"
   borderopacity="1"
   objecttolerance="10"
   gridtolerance="10"
   guidetolerance="10"
   inkscape:pageopacity="0"
   inkscape:pageshadow="2"
   inkscape:window-width="1920"
   inkscape:window-height="1028"
   id="namedview3452"
   showgrid="false"
   inkscape:zoom="0.4609375"
   inkscape:cx="131.25424"
   inkscape:cy="256"
   inkscape:window-x="-8"
   inkscape:window-y="-8"
   inkscape:window-maximized="1"
   inkscape:current-layer="Capa_1" />
<g
   id="g3419"
   style="fill:#ffffff">
	<g
   id="g3417"
   style="fill:#ffffff">
		<g
   id="g3415"
   style="fill:#ffffff">
			<path
   d="M492,352c11.046,0,20-8.954,20-20V80c0-44.112-35.888-80-80-80H80C35.888,0,0,35.888,0,80v352c0,44.112,35.888,80,80,80     h352c44.112,0,80-35.888,80-80c0-11.046-8.954-20-20-20c-11.046,0-20,8.954-20,20c0,22.056-17.944,40-40,40H80     c-22.056,0-40-17.944-40-40V80c0-22.056,17.944-40,40-40h352c22.056,0,40,17.944,40,40v252C472,343.046,480.954,352,492,352z"
   id="path3411"
   style="fill:#ffffff" />
			<path
   d="M281,260h-31c-11.046,0-20,8.954-20,20c0,11.046,8.954,20,20,20h31c55.14,0,100-44.86,100-100s-44.86-100-100-100H170     c-11.046,0-20,8.954-20,20v272c0,11.046,8.954,20,20,20s20-8.954,20-20V140h91c33.084,0,60,26.916,60,60S314.084,260,281,260z"
   id="path3413"
   style="fill:#ffffff" />
		</g>
	</g>
</g>
<g
   id="g3421">
</g>
<g
   id="g3423">
</g>
<g
   id="g3425">
</g>
<g
   id="g3427">
</g>
<g
   id="g3429">
</g>
<g
   id="g3431">
</g>
<g
   id="g3433">
</g>
<g
   id="g3435">
</g>
<g
   id="g3437">
</g>
<g
   id="g3439">
</g>
<g
   id="g3441">
</g>
<g
   id="g3443">
</g>
<g
   id="g3445">
</g>
<g
   id="g3447">
</g>
<g
   id="g3449">
</g>
</svg>