<?xml version="1.0" encoding="UTF-8" standalone="no"?>
<svg
   xmlns:dc="http://purl.org/dc/elements/1.1/"
   xmlns:cc="http://creativecommons.org/ns#"
   xmlns:rdf="http://www.w3.org/1999/02/22-rdf-syntax-ns#"
   xmlns:svg="http://www.w3.org/2000/svg"
   xmlns="http://www.w3.org/2000/svg"
   xmlns:sodipodi="http://sodipodi.sourceforge.net/DTD/sodipodi-0.dtd"
   xmlns:inkscape="http://www.inkscape.org/namespaces/inkscape"
   inkscape:version="1.0 (4035a4fb49, 2020-05-01)"
   sodipodi:docname="instagram.svg"
   xml:space="preserve"
   style="enable-background:new 0 0 512 512;"
   viewBox="0 0 512 512"
   y="0px"
   x="0px"
   id="Vrstva_1"
   version="1.1"><metadata
   id="metadata13"><rdf:RDF><cc:Work
       rdf:about=""><dc:format>image/svg+xml</dc:format><dc:type
         rdf:resource="http://purl.org/dc/dcmitype/StillImage" /></cc:Work></rdf:RDF></metadata><defs
   id="defs11" /><sodipodi:namedview
   inkscape:current-layer="Vrstva_1"
   inkscape:window-maximized="1"
   inkscape:window-y="-8"
   inkscape:window-x="-8"
   inkscape:cy="336.01969"
   inkscape:cx="228.51765"
   inkscape:zoom="1.328125"
   showgrid="false"
   id="namedview9"
   inkscape:window-height="847"
   inkscape:window-width="1440"
   inkscape:pageshadow="2"
   inkscape:pageopacity="0"
   guidetolerance="10"
   gridtolerance="10"
   objecttolerance="10"
   borderopacity="1"
   bordercolor="#666666"
   pagecolor="#ffffff" />
<path
   style="fill:#e8377f;fill-opacity:1"
   id="path2"
   d="M373.4,0H138.6C62.2,0,0,62.2,0,138.6v234.8C0,449.8,62.2,512,138.6,512h234.8c76.4,0,138.6-62.2,138.6-138.6V138.6  C512,62.2,449.8,0,373.4,0z M256,396c-77.2,0-140-62.8-140-140s62.8-140,140-140s140,62.8,140,140S333.2,396,256,396z M399.3,149  c-22.8,0-41.4-18.6-41.4-41.4s18.6-41.4,41.4-41.4s41.4,18.6,41.4,41.4S422.2,149,399.3,149z" />
<path
   style="fill:#e8377f;fill-opacity:1"
   id="path4"
   d="M256,146c-60.6,0-110,49.3-110,110c0,60.6,49.3,110,110,110c60.6,0,110-49.3,110-110C366,195.4,316.6,146,256,146z" />
<path
   style="fill:#e8377f;fill-opacity:1"
   id="path6"
   d="M399.3,96.3c-6.3,0-11.4,5.1-11.4,11.4s5.1,11.4,11.4,11.4s11.4-5.1,11.4-11.4S405.6,96.3,399.3,96.3z" />
</svg>
