<?xml version="1.0" encoding="UTF-8" standalone="no"?>
<svg
   xmlns:dc="http://purl.org/dc/elements/1.1/"
   xmlns:cc="http://creativecommons.org/ns#"
   xmlns:rdf="http://www.w3.org/1999/02/22-rdf-syntax-ns#"
   xmlns:svg="http://www.w3.org/2000/svg"
   xmlns="http://www.w3.org/2000/svg"
   xmlns:sodipodi="http://sodipodi.sourceforge.net/DTD/sodipodi-0.dtd"
   xmlns:inkscape="http://www.inkscape.org/namespaces/inkscape"
   inkscape:version="1.0 (4035a4fb49, 2020-05-01)"
   sodipodi:docname="home.svg"
   xml:space="preserve"
   style="enable-background:new 0 0 512 512;"
   viewBox="0 0 512 512"
   y="0px"
   x="0px"
   id="Capa_1"
   version="1.1"><metadata
   id="metadata43"><rdf:RDF><cc:Work
       rdf:about=""><dc:format>image/svg+xml</dc:format><dc:type
         rdf:resource="http://purl.org/dc/dcmitype/StillImage" /></cc:Work></rdf:RDF></metadata><defs
   id="defs41" /><sodipodi:namedview
   inkscape:current-layer="Capa_1"
   inkscape:window-maximized="1"
   inkscape:window-y="-8"
   inkscape:window-x="-8"
   inkscape:cy="115.38025"
   inkscape:cx="278.75516"
   inkscape:zoom="1.328125"
   showgrid="false"
   id="namedview39"
   inkscape:window-height="847"
   inkscape:window-width="1440"
   inkscape:pageshadow="2"
   inkscape:pageopacity="0"
   guidetolerance="10"
   gridtolerance="10"
   objecttolerance="10"
   borderopacity="1"
   bordercolor="#666666"
   pagecolor="#ffffff" />
<g
   style="fill:#e8377f;fill-opacity:1"
   id="g6">
	<g
   style="fill:#e8377f;fill-opacity:1"
   id="g4">
		<path
   style="fill:#e8377f;fill-opacity:1"
   id="path2"
   d="M506.188,236.413L297.798,26.65c-0.267-0.27-0.544-0.532-0.826-0.786c-22.755-20.431-57.14-20.504-79.982-0.169    c-0.284,0.253-0.56,0.514-0.829,0.782L5.872,236.352c-7.818,7.804-7.831,20.467-0.028,28.285    c7.804,7.818,20.467,7.83,28.284,0.028L50,248.824v172.684c0,44.112,35.888,80,80,80h72c11.046,0,20-8.954,20-20v-163h70v163    c0,11.046,8.954,20,20,20h70c44.112,0,80-35.888,80-80c0-11.046-8.954-20-20-20c-11.046,0-20,8.954-20,20    c0,22.056-17.944,40-40,40h-50v-163c0-11.046-8.954-20-20-20H202c-11.046,0-20,8.954-20,20v163h-52c-22.056,0-40-17.944-40-40    v-212c0-0.2-0.003-0.399-0.009-0.597L243.946,55.26c7.493-6.363,18.483-6.339,25.947,0.055L422,208.425v113.083    c0,11.046,8.954,20,20,20c11.046,0,20-8.954,20-20v-72.82l15.812,15.917c3.909,3.935,9.047,5.904,14.188,5.904    c5.097,0,10.195-1.937,14.096-5.812C513.932,256.912,513.974,244.249,506.188,236.413z" />
	</g>
</g>
<g
   id="g8">
</g>
<g
   id="g10">
</g>
<g
   id="g12">
</g>
<g
   id="g14">
</g>
<g
   id="g16">
</g>
<g
   id="g18">
</g>
<g
   id="g20">
</g>
<g
   id="g22">
</g>
<g
   id="g24">
</g>
<g
   id="g26">
</g>
<g
   id="g28">
</g>
<g
   id="g30">
</g>
<g
   id="g32">
</g>
<g
   id="g34">
</g>
<g
   id="g36">
</g>
</svg>
