<svg id="Vrstva_1" data-name="Vrstva 1" xmlns="http://www.w3.org/2000/svg" width="99.8785mm" height="35.7206mm" viewBox="0 0 283.1202 101.2552"><defs><style>.cls-1{fill:#231f20;}.cls-2{fill:#00a2e4;}.cls-2,.cls-3,.cls-4{fill-rule:evenodd;}.cls-3{fill:#fcc449;}.cls-4{fill:#ed3787;}</style></defs><title>logo</title><rect class="cls-1" x="121.496" y="45.3988" width="3.4557" height="37.0267"/><polygon class="cls-1" points="112.61 61.592 96.713 61.592 96.713 48.509 114.338 48.509 114.338 45.399 93.356 45.399 93.356 82.426 96.713 82.426 96.713 64.702 112.61 64.702 112.61 61.592"/><path class="cls-1" d="M72.868,81.8088c-8.9357,0-10.2688-7.01-10.2688-15.8967S63.9323,50.0155,72.868,50.0155s10.2688,7.01,10.2688,15.8966S81.8036,81.8088,72.868,81.8088m0,3.11c12.0954,0,13.8231-9.33,13.8231-19.0069S84.9634,46.9053,72.868,46.9053,59.0448,56.2358,59.0448,65.9121,60.7725,84.919,72.868,84.919Z" transform="translate(0 -2)"/><path class="cls-1" d="M32.4845,50.5092h9.1332c6.5659,0,7.5535,3.3571,7.5535,7.3063s-.9876,7.3066-7.5535,7.3066H32.4845Zm0,17.7234h8.5408c.5431,0,1.0859,0,1.629-.0493l8.2939,16.2422h3.9L46.0114,67.64c5.0851-1.3328,6.8128-4.8875,6.8128-9.8246,0-6.3683-2.8633-10.4167-12.0952-10.4167H29.1274V84.4255h3.3571Z" transform="translate(0 -2)"/><path class="cls-1" d="M3.3571,50.5092H11.75c6.961,0,8.2939,4.4431,8.2939,7.9977s-1.3329,7.9977-8.2939,7.9977H3.3571Zm0,19.1056h7.948c9.2322,0,12.3917-5.3317,12.3917-11.1079s-3.16-11.1081-12.3917-11.1081H0V84.4255H3.3571Z" transform="translate(0 -2)"/><path class="cls-1" d="M257.6424,54.6067h5.381c3.5053,0,3.95,2.3205,3.95,4.394,0,2.0239-.4442,4.3937-3.95,4.3937h-5.381Zm0,15.9463h5.0847l4.9862,13.8725h9.2321L270.3793,68.973c3.9-1.876,5.1837-5.3813,5.1837-9.9723,0-7.06-3.2581-11.6019-13.2307-11.6019H249.7431V84.4255h7.8993Z" transform="translate(0 -2)"/><path class="cls-1" d="M230.6869,53.8663c4.8875,0,6.7634,3.4064,6.7634,12.0458s-1.8759,12.0462-6.7634,12.0462-6.7635-3.4064-6.7635-12.0462,1.8763-12.0458,6.7635-12.0458m0,31.25c11.6509,0,14.7614-7.899,14.7614-19.2045s-3.1105-19.2044-14.7614-19.2044-14.7612,7.899-14.7612,19.2044S219.0359,85.1166,230.6869,85.1166Z" transform="translate(0 -2)"/><polygon class="cls-1" points="200.868 45.399 192.969 45.399 192.969 82.426 215.827 82.426 215.827 75.218 200.868 75.218 200.868 45.399"/><path class="cls-1" d="M173.9132,53.8663c4.8875,0,6.7634,3.4064,6.7634,12.0458s-1.8759,12.0462-6.7634,12.0462S167.15,74.5519,167.15,65.9121s1.876-12.0458,6.7635-12.0458m0,31.25c11.6509,0,14.7611-7.899,14.7611-19.2045s-3.11-19.2044-14.7611-19.2044-14.7612,7.899-14.7612,19.2044S162.2622,85.1166,173.9132,85.1166Z" transform="translate(0 -2)"/><path class="cls-1" d="M131.4068,65.9121c.0493,13.9218,5.1837,19.2045,15.9953,19.2045a17.883,17.883,0,0,0,7.7015-1.3825V76.28a16.4132,16.4132,0,0,1-6.9114,1.4318c-6.0231,0-8.7877-2.4191-8.7877-11.7993s2.7646-11.7989,8.7877-11.7989a16.4132,16.4132,0,0,1,6.9114,1.4315V48.09a17.8878,17.8878,0,0,0-7.7015-1.3825c-10.8116,0-15.946,5.2826-15.9953,19.2044" transform="translate(0 -2)"/><polygon class="cls-2" points="110.196 34.254 110.196 10.926 126.059 8.55 126.059 35.372 110.196 34.254"/><polygon class="cls-3" points="128.894 35.372 128.894 2.375 147.898 0 147.898 34.254 128.894 35.372"/><polygon class="cls-4" points="150.733 34.254 150.733 8.55 166.749 10.926 166.749 35.372 150.733 34.254"/><polygon class="cls-1" points="233.065 91.693 234.238 90.39 232.639 90.39 231.951 91.693 233.065 91.693"/><rect class="cls-1" x="231.8445" y="92.2266" width="1.3272" height="8.8863"/><polygon class="cls-1" points="222.923 90.39 224.427 91.693 225.778 91.693 227.283 90.39 226.122 90.39 225.103 90.982 224.084 90.39 222.923 90.39"/><path class="cls-1" d="M225.1267,97.947c-1.1733-.1539-1.7184-.32-1.7184-1.2795,0-.7583.4743-1.3272,1.86-1.3272a5.8894,5.8894,0,0,1,2.3341.4623V94.5112a5.6214,5.6214,0,0,0-2.4052-.4266c-2.4171,0-3.1516,1.2676-3.1516,2.571,0,1.6234.8411,2.2039,3.0093,2.4763,1.1968.1539,1.6115.3909,1.6115,1.3745,0,.8411-.474,1.4928-2.0733,1.4928a6.0286,6.0286,0,0,1-2.5475-.5806v1.3269a6.75,6.75,0,0,0,2.63.51c2.3814,0,3.3769-1.1492,3.3769-2.8318,0-1.8128-1.0783-2.2275-2.9265-2.4764" transform="translate(0 -2)"/><path class="cls-1" d="M214.9724,103.1129a3.7308,3.7308,0,0,0,.9953.1423c1.635,0,2.3459-.6874,2.3459-1.9789v-7.05h-1.3269v6.8485c0,.6636-.45.9122-1.09.9122a3.0858,3.0858,0,0,1-.9241-.1421Z" transform="translate(0 -2)"/><polygon class="cls-1" points="206.809 90.39 208.314 91.693 209.664 91.693 211.169 90.39 210.008 90.39 208.989 90.982 207.97 90.39 206.809 90.39"/><polygon class="cls-1" points="211.217 95.9 207.52 95.9 207.52 93.447 211.596 93.447 211.596 92.227 206.193 92.227 206.193 101.113 211.596 101.113 211.596 99.893 207.52 99.893 207.52 97.12 211.217 97.12 211.217 95.9"/><polygon class="cls-1" points="202.378 101.113 202.378 92.227 201.062 92.227 201.098 98.542 197.235 92.227 196.027 92.227 196.027 101.113 197.342 101.113 197.306 94.798 201.169 101.113 202.378 101.113"/><polygon class="cls-1" points="191.193 92.227 189.143 99.454 187.093 92.227 185.648 92.227 188.467 101.22 189.818 101.22 192.638 92.227 191.193 92.227"/><polygon class="cls-1" points="182.034 95.9 178.337 95.9 178.337 93.447 182.413 93.447 182.413 92.227 177.01 92.227 177.01 101.113 182.413 101.113 182.413 99.893 178.337 99.893 178.337 97.12 182.034 97.12 182.034 95.9"/><path class="cls-1" d="M168.61,95.4472h1.7533c1.2325,0,1.3983.6871,1.3983,1.4218,0,.7226-.1658,1.4216-1.3983,1.4216H168.61Zm0,4.0518h1.8482l1.6115,3.6139h1.552l-1.86-3.8744a2.1773,2.1773,0,0,0,1.4454-2.37c0-1.6115-.7345-2.6424-3.0331-2.6424h-2.891v8.8863H168.61Z" transform="translate(0 -2)"/><path class="cls-1" d="M161.536,99.8545h-2.2751l1.1375-3.9334Zm.9122,3.2584h1.4456l-2.82-8.9929h-1.3507l-2.82,8.9929h1.4457l.6279-2.1682H161.82Z" transform="translate(0 -2)"/><path class="cls-1" d="M152.14,96.7148c0,.5687-.2489,1.2206-1.3153,1.2206h-1.7416V95.4472h1.6943c1.161,0,1.3626.6752,1.3626,1.2676m-3.0569,2.346h1.7889c1.1257,0,1.54.4977,1.54,1.41,0,.7348-.3079,1.4219-1.552,1.4219h-1.7773Zm-1.3272,4.0521h3.0569c2.2986,0,3.0214-1.1373,3.0214-2.6065a2.0135,2.0135,0,0,0-1.3388-2.0854,1.913,1.913,0,0,0,1.0664-1.7654c0-1.3745-.6517-2.429-2.82-2.429h-2.9857Z" transform="translate(0 -2)"/><polygon class="cls-1" points="139.96 93.447 139.96 92.227 134.012 92.227 134.012 93.447 136.322 93.447 136.322 101.113 137.649 101.113 137.649 93.447 139.96 93.447"/><polygon class="cls-1" points="125.967 90.39 127.471 91.693 128.822 91.693 130.327 90.39 129.165 90.39 128.147 90.982 127.128 90.39 125.967 90.39"/><polygon class="cls-1" points="130.374 95.9 126.677 95.9 126.677 93.447 130.753 93.447 130.753 92.227 125.35 92.227 125.35 101.113 130.753 101.113 130.753 99.893 126.677 99.893 126.677 97.12 130.374 97.12 130.374 95.9"/><polygon class="cls-1" points="120.516 92.227 118.466 99.454 116.417 92.227 114.971 92.227 117.791 101.22 119.142 101.22 121.962 92.227 120.516 92.227"/><path class="cls-1" d="M109.1061,97.947c-1.173-.1539-1.7181-.32-1.7181-1.2795,0-.7583.4742-1.3272,1.86-1.3272a5.89,5.89,0,0,1,2.3343.4623V94.5112a5.6217,5.6217,0,0,0-2.4052-.4266c-2.4171,0-3.1515,1.2676-3.1515,2.571,0,1.6234.841,2.2039,3.0092,2.4763,1.1968.1539,1.6115.3909,1.6115,1.3745,0,.8411-.4739,1.4928-2.0735,1.4928a6.0278,6.0278,0,0,1-2.5472-.5806v1.3269a6.749,6.749,0,0,0,2.63.51c2.3814,0,3.377-1.1492,3.377-2.8318,0-1.8128-1.0783-2.2275-2.9268-2.4764" transform="translate(0 -2)"/><polygon class="cls-1" points="97.435 95.9 93.739 95.9 93.739 93.447 97.814 93.447 97.814 92.227 92.411 92.227 92.411 101.113 97.814 101.113 97.814 99.893 93.739 99.893 93.739 97.12 97.435 97.12 97.435 95.9"/><polygon class="cls-1" points="87.329 94.431 87.269 101.113 88.596 101.113 88.596 92.227 86.89 92.227 84.485 98.281 82.08 92.227 80.373 92.227 80.373 101.113 81.7 101.113 81.641 94.431 83.857 99.893 85.113 99.893 87.329 94.431"/><polygon class="cls-1" points="74.046 91.693 75.22 90.39 73.62 90.39 72.933 91.693 74.046 91.693"/><path class="cls-1" d="M74.6269,99.8545H72.3521L73.49,95.9211Zm.9124,3.2584h1.4454l-2.82-8.9929H72.8141l-2.82,8.9929H71.44l.6278-2.1682h2.8438Z" transform="translate(0 -2)"/><polygon class="cls-1" points="63.169 92.227 61.843 92.227 61.843 101.113 67.032 101.113 67.032 99.893 63.169 99.893 63.169 92.227"/><polygon class="cls-1" points="53.395 90.39 54.899 91.693 56.25 91.693 57.755 90.39 56.594 90.39 55.575 90.982 54.556 90.39 53.395 90.39"/><polygon class="cls-1" points="57.802 95.9 54.105 95.9 54.105 93.447 58.181 93.447 58.181 92.227 52.779 92.227 52.779 101.113 58.181 101.113 58.181 99.893 54.105 99.893 54.105 97.12 57.802 97.12 57.802 95.9"/><path class="cls-1" d="M44.0342,95.4472h1.3507c1.7774,0,2.3463,1.2914,2.3463,3.2227s-.5689,3.2227-2.3463,3.2227H44.0342Zm1.3153,7.6657c2.95,0,3.7678-1.9193,3.7678-4.443S48.3,94.2266,45.35,94.2266H42.7073v8.8863Z" transform="translate(0 -2)"/><path class="cls-1" d="M279.684,45.4678c0,.19-.059.4385-.3909.4385h-.8056V45.03h.8056c.2605,0,.3909.1777.3909.4382m.13,2.6425h1.2325l-.8651-1.5049a1.2749,1.2749,0,0,0,.58-1.173,1.2577,1.2577,0,0,0-1.4454-1.3745h-1.9077V48.11h1.0783V46.8066h.6871Z" transform="translate(0 -2)"/><path class="cls-1" d="M279.1627,49.0344a2.7219,2.7219,0,0,1-3.045-2.9384,3.0344,3.0344,0,0,1,6.0665,0,2.7148,2.7148,0,0,1-3.0215,2.9384m-.0235.9005c2.1682,0,3.981-1.0309,3.981-3.8389,0-2.82-1.8128-3.8509-3.981-3.8509-2.1447,0-3.9575,1.031-3.9575,3.8509C275.1817,48.904,276.9945,49.9349,279.1392,49.9349Z" transform="translate(0 -2)"/></svg>