<svg id="Vrstva_1" data-name="Vrstva 1" xmlns="http://www.w3.org/2000/svg" width="124.3204mm" height="21.523mm" viewBox="0 0 352.4043 61.0101"><defs><style>.cls-1{fill:#231f20;}.cls-2{fill:#00a2e4;}.cls-2,.cls-3,.cls-4{fill-rule:evenodd;}.cls-3{fill:#fcc449;}.cls-4{fill:#ed3787;}</style></defs><title>proficolor-logo</title><polygon class="cls-1" points="270.795 51.448 271.967 50.145 270.368 50.145 269.681 51.448 270.795 51.448"/><rect class="cls-1" x="269.574" y="51.9815" width="1.3271" height="8.8863"/><polygon class="cls-1" points="260.652 50.145 262.157 51.448 263.508 51.448 265.012 50.145 263.851 50.145 262.832 50.737 261.813 50.145 260.652 50.145"/><path class="cls-1" d="M262.8561,57.7019c-1.1732-.1539-1.7183-.32-1.7183-1.2795,0-.7583.4742-1.3272,1.86-1.3272a5.8894,5.8894,0,0,1,2.3341.4623V54.2661a5.6214,5.6214,0,0,0-2.4052-.4266c-2.4171,0-3.1516,1.2676-3.1516,2.571,0,1.6234.8411,2.2039,3.0093,2.4763,1.1968.1539,1.6115.3909,1.6115,1.3745,0,.8411-.474,1.4928-2.0733,1.4928a6.0286,6.0286,0,0,1-2.5475-.5806V62.5a6.75,6.75,0,0,0,2.63.51c2.3814,0,3.3769-1.1492,3.3769-2.8318,0-1.8128-1.0783-2.2275-2.9265-2.4764" transform="translate(0 -2)"/><path class="cls-1" d="M252.7019,62.8678a3.73,3.73,0,0,0,.9952.1423c1.635,0,2.346-.6874,2.346-1.9789v-7.05h-1.3269V60.83c0,.6636-.45.9122-1.09.9122a3.0852,3.0852,0,0,1-.9241-.1421Z" transform="translate(0 -2)"/><polygon class="cls-1" points="244.538 50.145 246.043 51.448 247.394 51.448 248.899 50.145 247.737 50.145 246.719 50.737 245.699 50.145 244.538 50.145"/><polygon class="cls-1" points="248.946 55.655 245.249 55.655 245.249 53.202 249.325 53.202 249.325 51.982 243.922 51.982 243.922 60.868 249.325 60.868 249.325 59.648 245.249 59.648 245.249 56.875 248.946 56.875 248.946 55.655"/><polygon class="cls-1" points="240.107 60.868 240.107 51.982 238.792 51.982 238.827 58.297 234.965 51.982 233.756 51.982 233.756 60.868 235.071 60.868 235.036 54.553 238.898 60.868 240.107 60.868"/><polygon class="cls-1" points="228.922 51.982 226.872 59.209 224.823 51.982 223.377 51.982 226.197 60.975 227.548 60.975 230.367 51.982 228.922 51.982"/><polygon class="cls-1" points="219.763 55.655 216.066 55.655 216.066 53.202 220.142 53.202 220.142 51.982 214.739 51.982 214.739 60.868 220.142 60.868 220.142 59.648 216.066 59.648 216.066 56.875 219.763 56.875 219.763 55.655"/><path class="cls-1" d="M206.339,55.2021h1.7532c1.2325,0,1.3983.6871,1.3983,1.4218,0,.7226-.1658,1.4216-1.3983,1.4216H206.339Zm0,4.0518h1.8481l1.6115,3.6139h1.552l-1.86-3.8744a2.1773,2.1773,0,0,0,1.4454-2.37c0-1.6115-.7345-2.6424-3.0331-2.6424h-2.891v8.8863h1.3272Z" transform="translate(0 -2)"/><path class="cls-1" d="M199.2654,59.6094H196.99l1.1375-3.9334Zm.9122,3.2584h1.4456l-2.82-8.9929h-1.3508l-2.82,8.9929h1.4457L196.706,60.7H199.55Z" transform="translate(0 -2)"/><path class="cls-1" d="M189.8694,56.47c0,.5687-.2489,1.2206-1.3153,1.2206h-1.7416V55.2021h1.6943c1.161,0,1.3626.6752,1.3626,1.2676m-3.0569,2.346h1.7889c1.1257,0,1.54.4977,1.54,1.41,0,.7348-.3078,1.4219-1.552,1.4219h-1.7773Zm-1.3272,4.0521h3.0569c2.2986,0,3.0215-1.1373,3.0215-2.6065a2.0136,2.0136,0,0,0-1.3388-2.0854,1.9129,1.9129,0,0,0,1.0663-1.7654c0-1.3745-.6516-2.429-2.82-2.429h-2.9858Z" transform="translate(0 -2)"/><polygon class="cls-1" points="177.689 53.202 177.689 51.982 171.741 51.982 171.741 53.202 174.051 53.202 174.051 60.868 175.378 60.868 175.378 53.202 177.689 53.202"/><polygon class="cls-1" points="163.696 50.145 165.201 51.448 166.551 51.448 168.056 50.145 166.895 50.145 165.876 50.737 164.857 50.145 163.696 50.145"/><polygon class="cls-1" points="168.104 55.655 164.407 55.655 164.407 53.202 168.483 53.202 168.483 51.982 163.08 51.982 163.08 60.868 168.483 60.868 168.483 59.648 164.407 59.648 164.407 56.875 168.104 56.875 168.104 55.655"/><polygon class="cls-1" points="158.245 51.982 156.196 59.209 154.146 51.982 152.7 51.982 155.521 60.975 156.871 60.975 159.691 51.982 158.245 51.982"/><path class="cls-1" d="M146.8355,57.7019c-1.173-.1539-1.7181-.32-1.7181-1.2795,0-.7583.4743-1.3272,1.86-1.3272a5.889,5.889,0,0,1,2.3343.4623V54.2661a5.6217,5.6217,0,0,0-2.4052-.4266c-2.4171,0-3.1515,1.2676-3.1515,2.571,0,1.6234.841,2.2039,3.0092,2.4763,1.1968.1539,1.6115.3909,1.6115,1.3745,0,.8411-.4739,1.4928-2.0735,1.4928a6.0282,6.0282,0,0,1-2.5472-.5806V62.5a6.7492,6.7492,0,0,0,2.63.51c2.3813,0,3.3769-1.1492,3.3769-2.8318,0-1.8128-1.0783-2.2275-2.9268-2.4764" transform="translate(0 -2)"/><polygon class="cls-1" points="135.165 55.655 131.468 55.655 131.468 53.202 135.544 53.202 135.544 51.982 130.141 51.982 130.141 60.868 135.544 60.868 135.544 59.648 131.468 59.648 131.468 56.875 135.165 56.875 135.165 55.655"/><polygon class="cls-1" points="125.058 54.185 124.998 60.868 126.326 60.868 126.326 51.982 124.619 51.982 122.214 58.036 119.809 51.982 118.103 51.982 118.103 60.868 119.43 60.868 119.371 54.185 121.586 59.648 122.842 59.648 125.058 54.185"/><polygon class="cls-1" points="111.776 51.448 112.949 50.145 111.349 50.145 110.662 51.448 111.776 51.448"/><path class="cls-1" d="M112.3563,59.6094h-2.2748l1.1375-3.9334Zm.9125,3.2584h1.4453l-2.82-8.9929h-1.3507l-2.82,8.9929h1.4457l.6279-2.1682h2.8437Z" transform="translate(0 -2)"/><polygon class="cls-1" points="100.899 51.982 99.572 51.982 99.572 60.868 104.761 60.868 104.761 59.648 100.899 59.648 100.899 51.982"/><polygon class="cls-1" points="91.124 50.145 92.629 51.448 93.979 51.448 95.484 50.145 94.323 50.145 93.304 50.737 92.285 50.145 91.124 50.145"/><polygon class="cls-1" points="95.532 55.655 91.835 55.655 91.835 53.202 95.911 53.202 95.911 51.982 90.508 51.982 90.508 60.868 95.911 60.868 95.911 59.648 91.835 59.648 91.835 56.875 95.532 56.875 95.532 55.655"/><path class="cls-1" d="M81.7637,55.2021h1.3507c1.7773,0,2.3462,1.2914,2.3462,3.2227s-.5689,3.2227-2.3462,3.2227H81.7637Zm1.3152,7.6657c2.95,0,3.7678-1.9193,3.7678-4.443s-.8175-4.4433-3.7678-4.4433H80.4368v8.8863Z" transform="translate(0 -2)"/><rect class="cls-1" x="190.7802" y="5.1537" width="3.4557" height="37.0267"/><polygon class="cls-1" points="181.894 21.347 165.997 21.347 165.997 8.264 183.622 8.264 183.622 5.154 162.64 5.154 162.64 42.18 165.997 42.18 165.997 24.457 181.894 24.457 181.894 21.347"/><path class="cls-1" d="M142.1521,41.5637c-8.9357,0-10.2688-7.01-10.2688-15.8967S133.2164,9.77,142.1521,9.77s10.2688,7.01,10.2688,15.8966-1.3332,15.8967-10.2688,15.8967m0,3.11c12.0954,0,13.8231-9.33,13.8231-19.0069S154.2475,6.66,142.1521,6.66s-13.8232,9.3305-13.8232,19.0068S130.0567,44.6739,142.1521,44.6739Z" transform="translate(0 -2)"/><path class="cls-1" d="M101.7686,10.2641h9.1332c6.5659,0,7.5535,3.3571,7.5535,7.3063s-.9876,7.3066-7.5535,7.3066h-9.1332Zm0,17.7234h8.5408c.5431,0,1.0859,0,1.6291-.0493L120.2323,44.18h3.9l-8.837-16.7854c5.0851-1.3328,6.8128-4.8875,6.8128-9.8246,0-6.3683-2.8633-10.4167-12.0951-10.4167H98.4115V44.18h3.3571Z" transform="translate(0 -2)"/><path class="cls-1" d="M72.6412,10.2641h8.3925c6.9611,0,8.2939,4.4431,8.2939,7.9977S87.9948,26.26,81.0337,26.26H72.6412Zm0,19.1056h7.9481c9.2321,0,12.3916-5.3317,12.3916-11.1079S89.8214,7.1537,80.5893,7.1537H69.2841V44.18h3.3571Z" transform="translate(0 -2)"/><path class="cls-1" d="M326.9265,14.3616h5.381c3.5053,0,3.95,2.32,3.95,4.394,0,2.0239-.4442,4.3937-3.95,4.3937h-5.381Zm0,15.9463h5.0848L336.9974,44.18H346.23l-6.5662-15.4525c3.9-1.876,5.1837-5.3813,5.1837-9.9723,0-7.06-3.2581-11.6019-13.2307-11.6019H319.0272V44.18h7.8993Z" transform="translate(0 -2)"/><path class="cls-1" d="M299.971,13.6212c4.8875,0,6.7635,3.4064,6.7635,12.0458s-1.876,12.0462-6.7635,12.0462-6.7635-3.4064-6.7635-12.0462,1.8763-12.0458,6.7635-12.0458m0,31.25c11.651,0,14.7614-7.899,14.7614-19.2045S311.622,6.4626,299.971,6.4626,285.21,14.3616,285.21,25.667,288.32,44.8715,299.971,44.8715Z" transform="translate(0 -2)"/><polygon class="cls-1" points="270.152 5.154 262.254 5.154 262.254 42.18 285.111 42.18 285.111 34.973 270.152 34.973 270.152 5.154"/><path class="cls-1" d="M243.1973,13.6212c4.8875,0,6.7635,3.4064,6.7635,12.0458s-1.876,12.0462-6.7635,12.0462-6.7635-3.4064-6.7635-12.0462,1.876-12.0458,6.7635-12.0458m0,31.25c11.651,0,14.7611-7.899,14.7611-19.2045s-3.11-19.2044-14.7611-19.2044-14.7611,7.899-14.7611,19.2044S231.5463,44.8715,243.1973,44.8715Z" transform="translate(0 -2)"/><path class="cls-1" d="M200.6909,25.667c.0494,13.9218,5.1837,19.2045,15.9954,19.2045a17.8829,17.8829,0,0,0,7.7014-1.3825V36.0345a16.4132,16.4132,0,0,1-6.9114,1.4318c-6.0231,0-8.7877-2.4191-8.7877-11.7993s2.7646-11.7989,8.7877-11.7989A16.4132,16.4132,0,0,1,224.3877,15.3V7.8451a17.8876,17.8876,0,0,0-7.7014-1.3825c-10.8117,0-15.946,5.2826-15.9954,19.2044" transform="translate(0 -2)"/><polygon class="cls-2" points="0 41.473 0 16.403 17.047 13.85 17.047 42.673 0 41.473"/><polygon class="cls-3" points="20.093 42.673 20.094 7.214 40.517 4.661 40.517 41.473 20.093 42.673"/><polygon class="cls-4" points="43.563 41.473 43.563 13.85 60.775 16.403 60.775 42.673 43.563 41.473"/><path class="cls-1" d="M348.9681,5.2227c0,.19-.0589.4385-.3909.4385h-.8056V4.7845h.8056c.26,0,.3909.1777.3909.4382m.13,2.6425h1.2325L349.4659,6.36a1.2749,1.2749,0,0,0,.5805-1.173,1.2577,1.2577,0,0,0-1.4454-1.3745h-1.9077V7.8652h1.0783V6.5615h.6871Z" transform="translate(0 -2)"/><path class="cls-1" d="M348.4468,8.7893a2.7218,2.7218,0,0,1-3.0449-2.9384,3.0344,3.0344,0,0,1,6.0664,0,2.7147,2.7147,0,0,1-3.0215,2.9384m-.0235.9c2.1682,0,3.981-1.0309,3.981-3.8389,0-2.82-1.8128-3.8509-3.981-3.8509-2.1447,0-3.9574,1.031-3.9574,3.8509C344.4659,8.6589,346.2786,9.69,348.4233,9.69Z" transform="translate(0 -2)"/></svg>